<svg xmlns="http://www.w3.org/2000/svg" viewBox="0 0 100 100">
  <!-- Palette body -->
  <path d="M50 10 C28 10 10 26 10 46 C10 62 20 74 36 78 C40 79 42 77 42 73 C42 71 42 69 42 67 C42 64 44 62 47 62 L60 62 C72 62 90 54 90 40 C90 23 72 10 50 10 Z" fill="#7c3aed"/>
  <!-- Paint holes -->
  <circle cx="28" cy="38" r="6" fill="white"/>
  <circle cx="42" cy="24" r="6" fill="white"/>
  <circle cx="58" cy="20" r="6" fill="white"/>
  <circle cx="72" cy="30" r="6" fill="white"/>
  <circle cx="78" cy="46" r="6" fill="white"/>
  <!-- Thumb hole -->
  <ellipse cx="32" cy="70" rx="7" ry="5" fill="#5b21b6"/>
</svg>
